<svg xmlns="http://www.w3.org/2000/svg" xmlns:xlink="http://www.w3.org/1999/xlink" contentscripttype="application/ecmascript" contentstyletype="text/css" height="204px" preserveAspectRatio="none" style="width:588px;height:204px;background:#FFFFFF;" version="1.1" viewBox="0 0 588 204" width="588px" zoomAndPan="magnify"><defs><filter height="300%" id="fikfpyfd82wmj" width="300%" x="-1" y="-1"><feGaussianBlur result="blurOut" stdDeviation="2.0"></feGaussianBlur><feColorMatrix in="blurOut" result="blurOut2" type="matrix" values="0 0 0 0 0 0 0 0 0 0 0 0 0 0 0 0 0 0 .4 0"></feColorMatrix><feOffset dx="4.0" dy="4.0" in="blurOut2" result="blurOut3"></feOffset><feBlend in="SourceGraphic" in2="blurOut3" mode="normal"></feBlend></filter></defs><g><rect fill="#FFFFFF" filter="url(#fikfpyfd82wmj)" height="52.7031" style="stroke:#A80036;stroke-width:1.0;" width="10" x="118.5" y="51.6094"></rect><rect fill="#FFFFFF" filter="url(#fikfpyfd82wmj)" height="60.7031" style="stroke:#A80036;stroke-width:1.0;" width="10" x="118.5" y="118.3125"></rect><rect fill="#FFFFFF" filter="url(#fikfpyfd82wmj)" height="52.7031" style="stroke:#A80036;stroke-width:1.0;" width="10" x="461.5" y="51.6094"></rect><rect fill="#FFFFFF" filter="url(#fikfpyfd82wmj)" height="60.7031" style="stroke:#A80036;stroke-width:1.0;" width="10" x="461.5" y="118.3125"></rect><line style="stroke:#A80036;stroke-width:1.0;stroke-dasharray:5.0,5.0;" x1="123" x2="123" y1="41.6094" y2="197.0156"></line><line style="stroke:#A80036;stroke-width:1.0;stroke-dasharray:5.0,5.0;" x1="466.5" x2="466.5" y1="41.6094" y2="197.0156"></line><rect fill="#FEFECE" filter="url(#fikfpyfd82wmj)" height="31.6094" style="stroke:#A80036;stroke-width:1.5;" width="233" x="5" y="5"></rect><text fill="#000000" font-family="sans-serif" font-size="14" lengthAdjust="spacing" textLength="219" x="12" y="26.5332">Care Services Selective Consumer</text><rect fill="#FEFECE" filter="url(#fikfpyfd82wmj)" height="31.6094" style="stroke:#A80036;stroke-width:1.5;" width="220" x="354.5" y="5"></rect><text fill="#000000" font-family="sans-serif" font-size="14" lengthAdjust="spacing" textLength="206" x="361.5" y="26.5332">Care Services Selective Supplier</text><rect fill="#FFFFFF" filter="url(#fikfpyfd82wmj)" height="52.7031" style="stroke:#A80036;stroke-width:1.0;" width="10" x="118.5" y="51.6094"></rect><rect fill="#FFFFFF" filter="url(#fikfpyfd82wmj)" height="60.7031" style="stroke:#A80036;stroke-width:1.0;" width="10" x="118.5" y="118.3125"></rect><rect fill="#FFFFFF" filter="url(#fikfpyfd82wmj)" height="52.7031" style="stroke:#A80036;stroke-width:1.0;" width="10" x="461.5" y="51.6094"></rect><rect fill="#FFFFFF" filter="url(#fikfpyfd82wmj)" height="60.7031" style="stroke:#A80036;stroke-width:1.0;" width="10" x="461.5" y="118.3125"></rect><polygon fill="#A80036" points="449.5,69.9609,459.5,73.9609,449.5,77.9609,453.5,73.9609" style="stroke:#A80036;stroke-width:1.0;"></polygon><line style="stroke:#A80036;stroke-width:1.0;" x1="128.5" x2="455.5" y1="73.9609" y2="73.9609"></line><text fill="#000000" font-family="sans-serif" font-size="13" lengthAdjust="spacing" textLength="276" x="135.5" y="69.1045">1. Find Matching Care Services Request [ITI-90]</text><polygon fill="#A80036" points="134.5,100.3125,124.5,104.3125,134.5,108.3125,130.5,104.3125" style="stroke:#A80036;stroke-width:1.0;"></polygon><line style="stroke:#A80036;stroke-width:1.0;stroke-dasharray:2.0,2.0;" x1="128.5" x2="465.5" y1="104.3125" y2="104.3125"></line><text fill="#000000" font-family="sans-serif" font-size="13" lengthAdjust="spacing" textLength="286" x="140.5" y="99.4561">2. Find Matching Care Services Response [ITI-90]</text><polygon fill="#A80036" points="449.5,144.6641,459.5,148.6641,449.5,152.6641,453.5,148.6641" style="stroke:#A80036;stroke-width:1.0;"></polygon><line style="stroke:#A80036;stroke-width:1.0;" x1="128.5" x2="455.5" y1="148.6641" y2="148.6641"></line><text fill="#000000" font-family="sans-serif" font-size="13" lengthAdjust="spacing" textLength="299" x="135.5" y="143.8076">3. Retrieve Care Services Resource Request [ITI-90]</text><polygon fill="#A80036" points="134.5,175.0156,124.5,179.0156,134.5,183.0156,130.5,179.0156" style="stroke:#A80036;stroke-width:1.0;"></polygon><line style="stroke:#A80036;stroke-width:1.0;stroke-dasharray:2.0,2.0;" x1="128.5" x2="465.5" y1="179.0156" y2="179.0156"></line><text fill="#000000" font-family="sans-serif" font-size="13" lengthAdjust="spacing" textLength="309" x="140.5" y="174.1592">4. Retrieve Care Services Resource Response [ITI-90]</text></g></svg>